<?xml version="1.0" encoding="UTF-8"?>
<svg viewBox="0 0 64 64" version="1.1" xmlns="http://www.w3.org/2000/svg" xmlns:xlink="http://www.w3.org/1999/xlink">
    <title>Unlimited</title>
    <g id="Unlimited" stroke="none" stroke-width="1" fill="none" fill-rule="evenodd">
        <path d="M32,32.6502515 C32,32.4327128 32,32.2175387 32,32 C31.7830451,32 31.5660903,32 31.3514936,32 C17.0704355,32.3336905 5.66238193,44.0295528 5.64705882,58.3529412 C17.9394567,58.3681578 28.6075049,49.8549139 31.3514936,37.8404409 C31.7377956,36.1360481 31.9550218,34.3975221 32,32.6502515 L32,32.6502515 Z" id="Fill-8" fill="#B595FA"></path>
        <path d="M37.852532,32.6431576 C36.1449035,32.2559625 34.402859,32.0405054 32.6523824,32 C32.4349216,32 32.2174608,32 32,32 C32,32.2175386 32,32.4327126 32,32.6502512 C32.3404915,46.9590967 44.0451764,58.3749583 58.3529412,58.3529412 L58.3529412,58.3529412 C58.3568275,46.0455688 49.8430748,35.3750294 37.8454409,32.6502512" id="Fill-10" fill="#FFB759"></path>
        <path d="M32,31.3465637 C32,31.5643758 32,31.7821879 32,32 C32.2175584,32 32.4351168,32 32.6526751,32 C34.4039372,31.9594437 36.1467635,31.7437157 37.8551581,31.3560338 C49.8421588,28.6239854 58.3484569,17.9551326 58.3529412,5.64705882 L58.3316583,5.64705882 C44.0351204,5.62121242 32.3381665,17.0373338 32,31.3465637 Z" id="Fill-16" fill="#58E47B"></path>
        <path d="M31.5079717,26.1661247 C28.3133191,13.7936743 18.411544,5.64705882 5.64705882,5.64705882 C5.64705882,18.2252439 14.1786882,28.7082471 25.8578861,31.3567839 C27.558677,31.7438586 29.293703,31.9593334 31.0371312,32 C31.2513637,32 31.7834134,32 32,32 C32,31.7824416 32,31.567248 32,31.3496896 C31.9552702,29.5808454 31.9458533,27.8309193 31.5079717,26.1661247 Z" id="Fill-14" fill="#75C8FC"></path>
        <path d="M58.1963155,5.64705882 C58.1857294,17.9751301 49.6011459,28.5477848 37.816705,31.385429 C36.6672033,31.6622243 34.3881496,31.9593823 32.6483888,32 C32.4322592,32 32.2161296,32 32,32 C32.2161296,32 32.4322592,32 32.6483888,32 C46.8713764,32.3352384 58.2217058,44.1112816 58.1986647,58.4705882 C60.6376206,55.9887747 62.0041733,52.6335024 62,49.1379097 L62,14.993964 C62.0044263,11.4971606 60.6369243,8.1407787 58.1963155,5.65891436" id="Fill-4" fill="#FFD41C"></path>
        <path d="M32.0377955,32.6441278 C32.0377955,32.4286377 32,32.21549 32,32 C32,32.21549 32,32.4286377 32,32.6441278 C31.9622045,34.4104096 31.7368417,36.125215 31.3514936,37.8176212 C28.6028315,49.7189475 17.9603921,58.1315461 5.64705882,58.1164526 L5.64705882,58.2124862 C8.13006185,60.6267647 11.4648302,61.9855464 14.9423998,62 L48.9583869,62 C52.4880327,62.0051272 55.8722574,60.6061622 58.3529412,58.1164526 C44.0579307,58.1266818 32.3715775,46.8146189 32.0377955,32.6441278 Z" id="Fill-19" fill="#FE7F8A"></path>
        <path d="M14.9904172,2 C11.5213508,2.01242362 8.19456376,3.37665591 5.72018281,5.80149169 C5.68715907,5.82972058 5.64705882,5.86971152 5.64705882,5.86971152 L5.72254165,5.86971152 C18.0113861,5.86075303 28.6718192,14.3314846 31.4079316,26.2792053 C31.7930338,27.9788744 31.9584205,29.712478 32,31.4545033 C32,31.6709249 32,31.9012255 32,32.1176471 C32,31.9012255 32,31.6709249 32,31.4545033 C32.3312995,17.2173407 44.073094,5.86124733 58.3529412,5.90735006 C55.8682162,3.41440135 52.491694,2.00874282 48.9671237,2 L14.9904172,2 Z" id="Fill-12" fill="#00E6D2"></path>
        <path d="M26.3005323,31.3492749 C14.6545748,28.7002934 6.16815505,18.5182707 5.83976954,5.80552468 L5.83976954,5.64705882 C3.38273881,8.12417669 2.00163747,11.4836327 2,14.9870838 L2,49.0572432 C1.99707405,52.5470102 3.36502407,55.8958938 5.80458538,58.3712514 C5.83999247,58.4024676 5.87366408,58.4356303 5.90544664,58.4705882 C5.86839131,44.105836 17.2304135,32.3485007 31.4726041,32.0138855 C31.6860547,32.0138855 31.9018509,32.0138855 32.1176471,32.0138855 C31.9018509,32.0138855 31.6860547,32.0138855 31.4726041,32.0138855 C29.7309113,31.9668516 27.9982565,31.7442057 26.3005323,31.3492749 Z" id="Triangle-2" fill="#8CA7FF"></path>
        <path d="M32,36.4705882 C35.2487338,36.4705882 37.8823529,39.1042074 37.8823529,42.3529412 C37.8823529,45.601675 35.2487338,48.2352941 32,48.2352941 C28.7512662,48.2352941 26.1176471,45.601675 26.1176471,42.3529412 C26.1176471,39.1042074 28.7512662,36.4705882 32,36.4705882 Z M21.8823529,26.1176471 C25.1310868,26.1176471 27.7647059,28.7512662 27.7647059,32 C27.7647059,35.2487338 25.1310868,37.8823529 21.8823529,37.8823529 C18.6336191,37.8823529 16,35.2487338 16,32 C16,28.7512662 18.6336191,26.1176471 21.8823529,26.1176471 Z M42.1176471,26.1176471 C45.3663809,26.1176471 48,28.7512662 48,32 C48,35.2487338 45.3663809,37.8823529 42.1176471,37.8823529 C38.8689132,37.8823529 36.2352941,35.2487338 36.2352941,32 C36.2352941,28.7512662 38.8689132,26.1176471 42.1176471,26.1176471 Z M32,16 C33.560097,16 35.0562965,16.6197461 36.1594517,17.7229013 C37.2626068,18.8260565 37.8823529,20.3222559 37.8823529,21.8823529 C37.8823529,25.1310868 35.2487338,27.7647059 32,27.7647059 C28.7512662,27.7647059 26.1176471,25.1310868 26.1176471,21.8823529 C26.1176471,18.6336191 28.7512662,16 32,16 Z" id="Shape" fill="#FFFFFF"></path>
        <path d="M48.875,2 C56.1237373,2 62,7.87626266 62,15.125 L62,48.875 C62,56.1237373 56.1237373,62 48.875,62 L15.125,62 C7.87626266,62 2,56.1237373 2,48.875 L2,15.125 C2,7.87626266 7.87626266,2 15.125,2 L48.875,2 M48.9411765,0 L15.0588235,0 C6.7463646,0.0103711399 0.0103711399,6.7463646 0,15.0588235 L0,48.9411765 C0.0103711399,57.2536354 6.7463646,63.9896289 15.0588235,64 L48.9411765,64 C57.2541721,63.9909225 63.9909225,57.2541721 64,48.9411765 L64,15.0588235 C63.9909225,6.74582785 57.2541721,0.00907745445 48.9411765,0 L48.9411765,0 Z" id="Rectangle" fill="#FFFFFF" fill-rule="nonzero"></path>
    </g>
</svg>